<!DOCTYPE svg PUBLIC "-//W3C//DTD SVG 1.1//EN" "http://www.w3.org/Graphics/SVG/1.1/DTD/svg11.dtd">
<!-- Uploaded to: SVG Repo, www.svgrepo.com, Transformed by: SVG Repo Mixer Tools -->
<svg fill="#f97316" width="800px" height="800px" viewBox="0 0 256 256" id="Flat" xmlns="http://www.w3.org/2000/svg">
<g id="SVGRepo_bgCarrier" stroke-width="0"/>
<g id="SVGRepo_tracerCarrier" stroke-linecap="round" stroke-linejoin="round"/>
<g id="SVGRepo_iconCarrier"> <path d="M176,20H80A20.02229,20.02229,0,0,0,60,40V216a20.02229,20.02229,0,0,0,20,20h96a20.02229,20.02229,0,0,0,20-20V40A20.02229,20.02229,0,0,0,176,20Zm12,196a12.01312,12.01312,0,0,1-12,12H80a12.01312,12.01312,0,0,1-12-12V40A12.01312,12.01312,0,0,1,80,28h96a12.01312,12.01312,0,0,1,12,12ZM164,56a4.0002,4.0002,0,0,1-4,4H96a4,4,0,0,1,0-8h64A4.0002,4.0002,0,0,1,164,56Z"/> </g>
</svg>